<?xml version="1.0" encoding="utf-8"?>
<!-- Generator: Adobe Illustrator 24.1.2, SVG Export Plug-In . SVG Version: 6.00 Build 0)  -->
<svg version="1.1" id="Camada_1" xmlns="http://www.w3.org/2000/svg" xmlns:xlink="http://www.w3.org/1999/xlink" x="0px" y="0px"
	 viewBox="0 0 704.4 357.5" style="enable-background:new 0 0 704.4 357.5;" xml:space="preserve">
<style type="text/css">
	.st0{fill:#E64F1C;}
	.st1{fill:#91BF1F;}
	.st2{fill:#0066A5;}
	.st3{fill:#1BAAE2;}
	.st4{fill:url(#SVGID_1_);}
	.st5{fill:url(#SVGID_2_);}
	.st6{fill:url(#SVGID_3_);}
	.st7{fill:url(#SVGID_4_);}
	.st8{fill:url(#SVGID_5_);}
	.st9{fill:url(#SVGID_6_);}
	.st10{fill:url(#SVGID_7_);}
	.st11{fill:url(#SVGID_8_);}
	.st12{fill:url(#SVGID_9_);}
	.st13{fill:url(#SVGID_10_);}
	.st14{fill:url(#SVGID_11_);}
</style>
<rect y="214.3" class="st0" width="54.3" height="54.3"/>
<rect class="st1" width="54.3" height="54.3"/>
<rect y="142.8" class="st2" width="54.3" height="54.3"/>
<rect y="71.4" class="st3" width="54.3" height="54.3"/>
<linearGradient id="SVGID_1_" gradientUnits="userSpaceOnUse" x1="386.5144" y1="263.9044" x2="386.5144" y2="91.4" gradientTransform="matrix(1 0 0 -1 0 360)">
	<stop  offset="0" style="stop-color:#FFFFFF"/>
	<stop  offset="1" style="stop-color:#E2E3E2"/>
</linearGradient>
<path class="st4" d="M379.6,103.3c-26.9,7.2-47,18.2-59.8,26.6v138.7h26.5c-0.1-41.3,0.1-82.7,0-124c10.6-5.8,25.2-12.5,43.5-17.1
	c25.9-6.6,48.5-6.5,63.4-5.3c0.1-8.4-0.1-16.9,0-25.3c-5.3-0.5-11.5-0.8-18.5-0.8C419.6,96,400.7,97.6,379.6,103.3"/>
<linearGradient id="SVGID_2_" gradientUnits="userSpaceOnUse" x1="546.4999" y1="263.2" x2="546.4999" y2="91.3845" gradientTransform="matrix(1 0 0 -1 0 360)">
	<stop  offset="0" style="stop-color:#FFFFFF"/>
	<stop  offset="1" style="stop-color:#E2E3E2"/>
</linearGradient>
<path class="st5" d="M586.6,96.8v114c-6.5,6-16.8,14.1-31.2,20.5c-20,8.9-38.4,10.4-48.9,10.5v-145h-26.7v171.7
	c3.8,0.1,9.5,0.2,16.3,0c23.1-0.7,54.1-1.6,82.8-17c8.8-4.7,21.8-13.2,34.3-28.1V96.8C613.2,96.8,586.6,96.8,586.6,96.8z"/>
<linearGradient id="SVGID_3_" gradientUnits="userSpaceOnUse" x1="653.2501" y1="360" x2="653.2501" y2="91.3" gradientTransform="matrix(1 0 0 -1 0 360)">
	<stop  offset="0" style="stop-color:#FFFFFF"/>
	<stop  offset="1" style="stop-color:#E2E3E2"/>
</linearGradient>
<rect x="639.9" class="st6" width="26.7" height="268.7"/>
<linearGradient id="SVGID_4_" gradientUnits="userSpaceOnUse" x1="201.4805" y1="360" x2="201.4805" y2="91.3" gradientTransform="matrix(1 0 0 -1 0 360)">
	<stop  offset="0" style="stop-color:#FFFFFF"/>
	<stop  offset="1" style="stop-color:#E2E3E2"/>
</linearGradient>
<path class="st7" d="M109.8,0v25.7h74.8c75,2.6,82.4,58.2,82.4,108.6c0,41.3-8.3,65.4-19.1,82.5c-16.2,25.5-46.5,26.2-63.3,26.2
	h-48.7V136.5h-26.1v132.2h74.8c12.3-0.1,52.7,0,78.8-30.3c26.9-32.8,30.3-72,29.7-104.1c-0.5-31-2.1-82.9-41.3-114.1
	C236.1,7.8,214.5,0,184.6,0H109.8z"/>
<linearGradient id="SVGID_5_" gradientUnits="userSpaceOnUse" x1="411.55" y1="54.881" x2="411.55" y2="2.4798" gradientTransform="matrix(1 0 0 -1 0 360)">
	<stop  offset="0" style="stop-color:#FFFFFF"/>
	<stop  offset="1" style="stop-color:#E2E3E2"/>
</linearGradient>
<path class="st8" d="M398.7,312.6c-4.8,5-7.1,12-7.1,21.1s2.5,15.6,7.5,19.5c2.2,1.7,4.6,2.9,7.2,3.4c2.6,0.6,4.9,0.9,6.8,0.9
	s3.7-0.1,5.5-0.3c6.2-0.6,10.5-1.6,12.9-3v-20H427l-0.4,17.7c-4.1,1-8.4,1.6-12.9,1.6s-8-1.1-10.7-3.3c-3.9-3.2-5.9-8.7-5.9-16.6
	s2-14.1,5.9-18.4c1.8-2,4-3.4,6.4-4.4c2.4-0.9,4.7-1.4,6.9-1.4c2.2,0,3.9,0.1,5.3,0.4c3.7,0.6,6.2,1.6,7.6,2.9l2.1-3.3
	c-0.7-0.6-1.9-1.4-3.7-2.2c-1.8-0.8-4.4-1.4-7.8-1.7l-2.6-0.1C409.6,305.1,403.5,307.6,398.7,312.6"/>
<linearGradient id="SVGID_6_" gradientUnits="userSpaceOnUse" x1="471.55" y1="54.7" x2="471.55" y2="2.7" gradientTransform="matrix(1 0 0 -1 0 360)">
	<stop  offset="0" style="stop-color:#FFFFFF"/>
	<stop  offset="1" style="stop-color:#E2E3E2"/>
</linearGradient>
<path class="st9" d="M459.3,309.3h5.8c2.3,0,4.3,0.1,6.1,0.4c5.6,0.9,8.4,4.2,8.4,9.8c0,4.4-1.2,7.5-3.7,9.3
	c-2.4,1.8-6.1,2.7-10.9,2.7h-5.8v-22.2H459.3z M453.8,305.3v52h5.5v-21.7h6.2c2.3,0,4.5-0.1,6.4-0.4l11.5,22.1h5.9l-12.2-23.7
	c5.3-2.4,8-7.2,8-14.3c0-5.3-1.7-9-5.2-11.1c-3-1.9-7.8-2.8-14.4-2.8h-11.7V305.3z"/>
<linearGradient id="SVGID_7_" gradientUnits="userSpaceOnUse" x1="531.6" y1="55.0314" x2="531.6" y2="2.5283" gradientTransform="matrix(1 0 0 -1 0 360)">
	<stop  offset="0" style="stop-color:#FFFFFF"/>
	<stop  offset="1" style="stop-color:#E2E3E2"/>
</linearGradient>
<path class="st10" d="M518.7,348.5c-3.6-3.6-5.4-9.1-5.4-16.4s1.7-12.9,5.2-16.8s7.9-5.9,13.2-5.9c5.6,0,9.9,1.6,13,4.7
	c3.6,3.7,5.4,9.1,5.4,16.4s-1.7,12.9-5.2,16.7c-3.5,3.9-7.9,5.8-13.2,5.8C526,353.1,521.6,351.5,518.7,348.5 M514.6,312.1
	c-4.6,4.8-6.9,11.5-6.9,20.3s2.3,15.3,7,19.7c4,3.7,9.6,5.5,16.9,5.5c6.9,0,12.6-2.3,17.1-7s6.8-11,6.8-19.1
	c0-17.6-8-26.4-23.9-26.4C524.8,305,519.1,307.3,514.6,312.1"/>
<linearGradient id="SVGID_8_" gradientUnits="userSpaceOnUse" x1="591.7999" y1="54.7" x2="591.7999" y2="2.4" gradientTransform="matrix(1 0 0 -1 0 360)">
	<stop  offset="0" style="stop-color:#FFFFFF"/>
	<stop  offset="1" style="stop-color:#E2E3E2"/>
</linearGradient>
<path class="st11" d="M607.1,305.3v29.6c0,3.5-0.4,6.4-1.2,8.7c-2.3,6.6-6.8,9.9-13.7,9.9c-4.6,0-8.1-1.1-10.5-3.3
	c-3.2-3-4.9-8-4.9-15.2v-29.6h-5.5V335c0,8.8,2.2,14.9,6.5,18.6c3.2,2.7,7.9,4,14.1,4c6.1,0,11-1.7,14.5-5.1
	c3.9-3.9,5.9-9.7,5.9-17.4v-29.7h-5.2V305.3z"/>
<linearGradient id="SVGID_9_" gradientUnits="userSpaceOnUse" x1="686.1386" y1="347.1" x2="698.0752" y2="347.1" gradientTransform="matrix(1 0 0 -1 0 360)">
	<stop  offset="0" style="stop-color:#FFFFFF"/>
	<stop  offset="1" style="stop-color:#E2E3E2"/>
</linearGradient>
<path class="st12" d="M686.1,5.9h6.3c0.9,0,1.7,0.1,2.4,0.4c0.7,0.2,1.3,0.6,1.7,1s0.7,0.8,0.9,1.3s0.3,1.1,0.3,1.7l0,0
	c0,0.6-0.1,1.1-0.3,1.6s-0.4,0.9-0.7,1.2c-0.3,0.4-0.6,0.7-1.1,0.9c-0.4,0.2-0.9,0.4-1.4,0.6l3.8,5.3h-2.9l-3.5-4.9l0,0h-3.1v4.9
	H686L686.1,5.9L686.1,5.9z M692.2,12.8c0.9,0,1.6-0.2,2.1-0.6c0.5-0.4,0.8-1,0.8-1.7l0,0c0-0.8-0.3-1.3-0.8-1.7s-1.2-0.6-2.2-0.6
	h-3.6v4.7L692.2,12.8L692.2,12.8z"/>
<linearGradient id="SVGID_10_" gradientUnits="userSpaceOnUse" x1="651.8" y1="54.734" x2="651.8" y2="2.7737" gradientTransform="matrix(1 0 0 -1 0 360)">
	<stop  offset="0" style="stop-color:#FFFFFF"/>
	<stop  offset="1" style="stop-color:#E2E3E2"/>
</linearGradient>
<path class="st13" d="M641.6,309.3h5.8c4.9,0,8.5,0.7,10.9,2.2s3.6,4.4,3.6,8.9c0,4.4-1.2,7.6-3.6,9.6c-2.4,2-6,2.9-10.9,2.9h-5.8
	V309.3z M636.1,305.3v52h5.5V337h6.2c3.1,0,5.8-0.3,8.3-1c7.6-2,11.4-7.5,11.4-16.5c0-5.4-1.7-9.2-5.2-11.4c-3-1.9-7.8-2.9-14.4-2.9
	L636.1,305.3L636.1,305.3z"/>
<linearGradient id="SVGID_11_" gradientUnits="userSpaceOnUse" x1="678.5388" y1="347.1" x2="704.3922" y2="347.1" gradientTransform="matrix(1 0 0 -1 0 360)">
	<stop  offset="0" style="stop-color:#FFFFFF"/>
	<stop  offset="1" style="stop-color:#E2E3E2"/>
</linearGradient>
<path class="st14" d="M691.5,25.8c-7.1,0-12.9-5.8-12.9-12.9S684.3,0,691.5,0c7.1,0,12.9,5.8,12.9,12.9S698.6,25.8,691.5,25.8z
	 M691.5,1.5c-6.3,0-11.4,5.1-11.4,11.4s5.1,11.4,11.4,11.4c6.3,0,11.4-5.1,11.4-11.4S697.8,1.5,691.5,1.5z"/>
</svg>
